<?xml version="1.0" encoding="utf-8" standalone="no"?>
<!DOCTYPE svg PUBLIC "-//W3C//DTD SVG 1.1//EN"
  "http://www.w3.org/Graphics/SVG/1.1/DTD/svg11.dtd">
<svg xmlns:xlink="http://www.w3.org/1999/xlink" width="504pt" height="288pt" viewBox="0 0 504 288" xmlns="http://www.w3.org/2000/svg" version="1.1">
 <metadata>
  <rdf:RDF xmlns:dc="http://purl.org/dc/elements/1.1/" xmlns:cc="http://creativecommons.org/ns#" xmlns:rdf="http://www.w3.org/1999/02/22-rdf-syntax-ns#">
   <cc:Work>
    <dc:type rdf:resource="http://purl.org/dc/dcmitype/StillImage"/>
    <dc:date>2025-12-10T20:56:36.566709</dc:date>
    <dc:format>image/svg+xml</dc:format>
    <dc:creator>
     <cc:Agent>
      <dc:title>Matplotlib v3.10.8, https://matplotlib.org/</dc:title>
     </cc:Agent>
    </dc:creator>
   </cc:Work>
  </rdf:RDF>
 </metadata>
 <defs>
  <style type="text/css">*{stroke-linejoin: round; stroke-linecap: butt}</style>
 </defs>
 <g id="figure_1">
  <g id="patch_1">
   <path d="M 0 288 
L 504 288 
L 504 0 
L 0 0 
z
" style="fill: #ffffff"/>
  </g>
  <g id="axes_1">
   <g id="patch_2">
    <path d="M 62.67125 246.04 
L 493.2 246.04 
L 493.2 25.44 
L 62.67125 25.44 
z
" style="fill: #ffffff"/>
   </g>
   <g id="matplotlib.axis_1">
    <g id="xtick_1">
     <g id="line2d_1">
      <path d="M 82.240739 246.04 
L 82.240739 25.44 
" clip-path="url(#p0bfb764a06)" style="fill: none; stroke: #b0b0b0; stroke-width: 0.8; stroke-linecap: square"/>
     </g>
     <g id="line2d_2">
      <defs>
       <path id="mdd20820882" d="M 0 0 
L 0 3.5 
" style="stroke: #000000; stroke-width: 0.8"/>
      </defs>
      <g>
       <use xlink:href="#mdd20820882" x="82.240739" y="246.04" style="stroke: #000000; stroke-width: 0.8"/>
      </g>
     </g>
     <g id="text_1">
      <!-- −1.00 -->
      <g transform="translate(66.918082 260.638438) scale(0.1 -0.1)">
       <defs>
        <path id="DejaVuSans-2212" d="M 678 2272 
L 4684 2272 
L 4684 1741 
L 678 1741 
L 678 2272 
z
" transform="scale(0.015625)"/>
        <path id="DejaVuSans-31" d="M 794 531 
L 1825 531 
L 1825 4091 
L 703 3866 
L 703 4441 
L 1819 4666 
L 2450 4666 
L 2450 531 
L 3481 531 
L 3481 0 
L 794 0 
L 794 531 
z
" transform="scale(0.015625)"/>
        <path id="DejaVuSans-2e" d="M 684 794 
L 1344 794 
L 1344 0 
L 684 0 
L 684 794 
z
" transform="scale(0.015625)"/>
        <path id="DejaVuSans-30" d="M 2034 4250 
Q 1547 4250 1301 3770 
Q 1056 3291 1056 2328 
Q 1056 1369 1301 889 
Q 1547 409 2034 409 
Q 2525 409 2770 889 
Q 3016 1369 3016 2328 
Q 3016 3291 2770 3770 
Q 2525 4250 2034 4250 
z
M 2034 4750 
Q 2819 4750 3233 4129 
Q 3647 3509 3647 2328 
Q 3647 1150 3233 529 
Q 2819 -91 2034 -91 
Q 1250 -91 836 529 
Q 422 1150 422 2328 
Q 422 3509 836 4129 
Q 1250 4750 2034 4750 
z
" transform="scale(0.015625)"/>
       </defs>
       <use xlink:href="#DejaVuSans-2212"/>
       <use xlink:href="#DejaVuSans-31" transform="translate(83.789062 0)"/>
       <use xlink:href="#DejaVuSans-2e" transform="translate(147.412109 0)"/>
       <use xlink:href="#DejaVuSans-30" transform="translate(179.199219 0)"/>
       <use xlink:href="#DejaVuSans-30" transform="translate(242.822266 0)"/>
      </g>
     </g>
    </g>
    <g id="xtick_2">
     <g id="line2d_3">
      <path d="M 131.16446 246.04 
L 131.16446 25.44 
" clip-path="url(#p0bfb764a06)" style="fill: none; stroke: #b0b0b0; stroke-width: 0.8; stroke-linecap: square"/>
     </g>
     <g id="line2d_4">
      <g>
       <use xlink:href="#mdd20820882" x="131.16446" y="246.04" style="stroke: #000000; stroke-width: 0.8"/>
      </g>
     </g>
     <g id="text_2">
      <!-- −0.75 -->
      <g transform="translate(115.841804 260.638438) scale(0.1 -0.1)">
       <defs>
        <path id="DejaVuSans-37" d="M 525 4666 
L 3525 4666 
L 3525 4397 
L 1831 0 
L 1172 0 
L 2766 4134 
L 525 4134 
L 525 4666 
z
" transform="scale(0.015625)"/>
        <path id="DejaVuSans-35" d="M 691 4666 
L 3169 4666 
L 3169 4134 
L 1269 4134 
L 1269 2991 
Q 1406 3038 1543 3061 
Q 1681 3084 1819 3084 
Q 2600 3084 3056 2656 
Q 3513 2228 3513 1497 
Q 3513 744 3044 326 
Q 2575 -91 1722 -91 
Q 1428 -91 1123 -41 
Q 819 9 494 109 
L 494 744 
Q 775 591 1075 516 
Q 1375 441 1709 441 
Q 2250 441 2565 725 
Q 2881 1009 2881 1497 
Q 2881 1984 2565 2268 
Q 2250 2553 1709 2553 
Q 1456 2553 1204 2497 
Q 953 2441 691 2322 
L 691 4666 
z
" transform="scale(0.015625)"/>
       </defs>
       <use xlink:href="#DejaVuSans-2212"/>
       <use xlink:href="#DejaVuSans-30" transform="translate(83.789062 0)"/>
       <use xlink:href="#DejaVuSans-2e" transform="translate(147.412109 0)"/>
       <use xlink:href="#DejaVuSans-37" transform="translate(179.199219 0)"/>
       <use xlink:href="#DejaVuSans-35" transform="translate(242.822266 0)"/>
      </g>
     </g>
    </g>
    <g id="xtick_3">
     <g id="line2d_5">
      <path d="M 180.088182 246.04 
L 180.088182 25.44 
" clip-path="url(#p0bfb764a06)" style="fill: none; stroke: #b0b0b0; stroke-width: 0.8; stroke-linecap: square"/>
     </g>
     <g id="line2d_6">
      <g>
       <use xlink:href="#mdd20820882" x="180.088182" y="246.04" style="stroke: #000000; stroke-width: 0.8"/>
      </g>
     </g>
     <g id="text_3">
      <!-- −0.50 -->
      <g transform="translate(164.765526 260.638438) scale(0.1 -0.1)">
       <use xlink:href="#DejaVuSans-2212"/>
       <use xlink:href="#DejaVuSans-30" transform="translate(83.789062 0)"/>
       <use xlink:href="#DejaVuSans-2e" transform="translate(147.412109 0)"/>
       <use xlink:href="#DejaVuSans-35" transform="translate(179.199219 0)"/>
       <use xlink:href="#DejaVuSans-30" transform="translate(242.822266 0)"/>
      </g>
     </g>
    </g>
    <g id="xtick_4">
     <g id="line2d_7">
      <path d="M 229.011903 246.04 
L 229.011903 25.44 
" clip-path="url(#p0bfb764a06)" style="fill: none; stroke: #b0b0b0; stroke-width: 0.8; stroke-linecap: square"/>
     </g>
     <g id="line2d_8">
      <g>
       <use xlink:href="#mdd20820882" x="229.011903" y="246.04" style="stroke: #000000; stroke-width: 0.8"/>
      </g>
     </g>
     <g id="text_4">
      <!-- −0.25 -->
      <g transform="translate(213.689247 260.638438) scale(0.1 -0.1)">
       <defs>
        <path id="DejaVuSans-32" d="M 1228 531 
L 3431 531 
L 3431 0 
L 469 0 
L 469 531 
Q 828 903 1448 1529 
Q 2069 2156 2228 2338 
Q 2531 2678 2651 2914 
Q 2772 3150 2772 3378 
Q 2772 3750 2511 3984 
Q 2250 4219 1831 4219 
Q 1534 4219 1204 4116 
Q 875 4013 500 3803 
L 500 4441 
Q 881 4594 1212 4672 
Q 1544 4750 1819 4750 
Q 2544 4750 2975 4387 
Q 3406 4025 3406 3419 
Q 3406 3131 3298 2873 
Q 3191 2616 2906 2266 
Q 2828 2175 2409 1742 
Q 1991 1309 1228 531 
z
" transform="scale(0.015625)"/>
       </defs>
       <use xlink:href="#DejaVuSans-2212"/>
       <use xlink:href="#DejaVuSans-30" transform="translate(83.789062 0)"/>
       <use xlink:href="#DejaVuSans-2e" transform="translate(147.412109 0)"/>
       <use xlink:href="#DejaVuSans-32" transform="translate(179.199219 0)"/>
       <use xlink:href="#DejaVuSans-35" transform="translate(242.822266 0)"/>
      </g>
     </g>
    </g>
    <g id="xtick_5">
     <g id="line2d_9">
      <path d="M 277.935625 246.04 
L 277.935625 25.44 
" clip-path="url(#p0bfb764a06)" style="fill: none; stroke: #b0b0b0; stroke-width: 0.8; stroke-linecap: square"/>
     </g>
     <g id="line2d_10">
      <g>
       <use xlink:href="#mdd20820882" x="277.935625" y="246.04" style="stroke: #000000; stroke-width: 0.8"/>
      </g>
     </g>
     <g id="text_5">
      <!-- 0.00 -->
      <g transform="translate(266.802813 260.638438) scale(0.1 -0.1)">
       <use xlink:href="#DejaVuSans-30"/>
       <use xlink:href="#DejaVuSans-2e" transform="translate(63.623047 0)"/>
       <use xlink:href="#DejaVuSans-30" transform="translate(95.410156 0)"/>
       <use xlink:href="#DejaVuSans-30" transform="translate(159.033203 0)"/>
      </g>
     </g>
    </g>
    <g id="xtick_6">
     <g id="line2d_11">
      <path d="M 326.859347 246.04 
L 326.859347 25.44 
" clip-path="url(#p0bfb764a06)" style="fill: none; stroke: #b0b0b0; stroke-width: 0.8; stroke-linecap: square"/>
     </g>
     <g id="line2d_12">
      <g>
       <use xlink:href="#mdd20820882" x="326.859347" y="246.04" style="stroke: #000000; stroke-width: 0.8"/>
      </g>
     </g>
     <g id="text_6">
      <!-- 0.25 -->
      <g transform="translate(315.726534 260.638438) scale(0.1 -0.1)">
       <use xlink:href="#DejaVuSans-30"/>
       <use xlink:href="#DejaVuSans-2e" transform="translate(63.623047 0)"/>
       <use xlink:href="#DejaVuSans-32" transform="translate(95.410156 0)"/>
       <use xlink:href="#DejaVuSans-35" transform="translate(159.033203 0)"/>
      </g>
     </g>
    </g>
    <g id="xtick_7">
     <g id="line2d_13">
      <path d="M 375.783068 246.04 
L 375.783068 25.44 
" clip-path="url(#p0bfb764a06)" style="fill: none; stroke: #b0b0b0; stroke-width: 0.8; stroke-linecap: square"/>
     </g>
     <g id="line2d_14">
      <g>
       <use xlink:href="#mdd20820882" x="375.783068" y="246.04" style="stroke: #000000; stroke-width: 0.8"/>
      </g>
     </g>
     <g id="text_7">
      <!-- 0.50 -->
      <g transform="translate(364.650256 260.638438) scale(0.1 -0.1)">
       <use xlink:href="#DejaVuSans-30"/>
       <use xlink:href="#DejaVuSans-2e" transform="translate(63.623047 0)"/>
       <use xlink:href="#DejaVuSans-35" transform="translate(95.410156 0)"/>
       <use xlink:href="#DejaVuSans-30" transform="translate(159.033203 0)"/>
      </g>
     </g>
    </g>
    <g id="xtick_8">
     <g id="line2d_15">
      <path d="M 424.70679 246.04 
L 424.70679 25.44 
" clip-path="url(#p0bfb764a06)" style="fill: none; stroke: #b0b0b0; stroke-width: 0.8; stroke-linecap: square"/>
     </g>
     <g id="line2d_16">
      <g>
       <use xlink:href="#mdd20820882" x="424.70679" y="246.04" style="stroke: #000000; stroke-width: 0.8"/>
      </g>
     </g>
     <g id="text_8">
      <!-- 0.75 -->
      <g transform="translate(413.573977 260.638438) scale(0.1 -0.1)">
       <use xlink:href="#DejaVuSans-30"/>
       <use xlink:href="#DejaVuSans-2e" transform="translate(63.623047 0)"/>
       <use xlink:href="#DejaVuSans-37" transform="translate(95.410156 0)"/>
       <use xlink:href="#DejaVuSans-35" transform="translate(159.033203 0)"/>
      </g>
     </g>
    </g>
    <g id="xtick_9">
     <g id="line2d_17">
      <path d="M 473.630511 246.04 
L 473.630511 25.44 
" clip-path="url(#p0bfb764a06)" style="fill: none; stroke: #b0b0b0; stroke-width: 0.8; stroke-linecap: square"/>
     </g>
     <g id="line2d_18">
      <g>
       <use xlink:href="#mdd20820882" x="473.630511" y="246.04" style="stroke: #000000; stroke-width: 0.8"/>
      </g>
     </g>
     <g id="text_9">
      <!-- 1.00 -->
      <g transform="translate(462.497699 260.638438) scale(0.1 -0.1)">
       <use xlink:href="#DejaVuSans-31"/>
       <use xlink:href="#DejaVuSans-2e" transform="translate(63.623047 0)"/>
       <use xlink:href="#DejaVuSans-30" transform="translate(95.410156 0)"/>
       <use xlink:href="#DejaVuSans-30" transform="translate(159.033203 0)"/>
      </g>
     </g>
    </g>
    <g id="text_10">
     <!-- x -->
     <g transform="translate(274.97625 274.316562) scale(0.1 -0.1)">
      <defs>
       <path id="DejaVuSans-78" d="M 3513 3500 
L 2247 1797 
L 3578 0 
L 2900 0 
L 1881 1375 
L 863 0 
L 184 0 
L 1544 1831 
L 300 3500 
L 978 3500 
L 1906 2253 
L 2834 3500 
L 3513 3500 
z
" transform="scale(0.015625)"/>
      </defs>
      <use xlink:href="#DejaVuSans-78"/>
     </g>
    </g>
   </g>
   <g id="matplotlib.axis_2">
    <g id="ytick_1">
     <g id="line2d_19">
      <path d="M 62.67125 236.012727 
L 493.2 236.012727 
" clip-path="url(#p0bfb764a06)" style="fill: none; stroke: #b0b0b0; stroke-width: 0.8; stroke-linecap: square"/>
     </g>
     <g id="line2d_20">
      <defs>
       <path id="m7484593357" d="M 0 0 
L -3.5 0 
" style="stroke: #000000; stroke-width: 0.8"/>
      </defs>
      <g>
       <use xlink:href="#m7484593357" x="62.67125" y="236.012727" style="stroke: #000000; stroke-width: 0.8"/>
      </g>
     </g>
     <g id="text_11">
      <!-- −1.00 -->
      <g transform="translate(25.025938 239.811946) scale(0.1 -0.1)">
       <use xlink:href="#DejaVuSans-2212"/>
       <use xlink:href="#DejaVuSans-31" transform="translate(83.789062 0)"/>
       <use xlink:href="#DejaVuSans-2e" transform="translate(147.412109 0)"/>
       <use xlink:href="#DejaVuSans-30" transform="translate(179.199219 0)"/>
       <use xlink:href="#DejaVuSans-30" transform="translate(242.822266 0)"/>
      </g>
     </g>
    </g>
    <g id="ytick_2">
     <g id="line2d_21">
      <path d="M 62.67125 210.944545 
L 493.2 210.944545 
" clip-path="url(#p0bfb764a06)" style="fill: none; stroke: #b0b0b0; stroke-width: 0.8; stroke-linecap: square"/>
     </g>
     <g id="line2d_22">
      <g>
       <use xlink:href="#m7484593357" x="62.67125" y="210.944545" style="stroke: #000000; stroke-width: 0.8"/>
      </g>
     </g>
     <g id="text_12">
      <!-- −0.75 -->
      <g transform="translate(25.025938 214.743764) scale(0.1 -0.1)">
       <use xlink:href="#DejaVuSans-2212"/>
       <use xlink:href="#DejaVuSans-30" transform="translate(83.789062 0)"/>
       <use xlink:href="#DejaVuSans-2e" transform="translate(147.412109 0)"/>
       <use xlink:href="#DejaVuSans-37" transform="translate(179.199219 0)"/>
       <use xlink:href="#DejaVuSans-35" transform="translate(242.822266 0)"/>
      </g>
     </g>
    </g>
    <g id="ytick_3">
     <g id="line2d_23">
      <path d="M 62.67125 185.876364 
L 493.2 185.876364 
" clip-path="url(#p0bfb764a06)" style="fill: none; stroke: #b0b0b0; stroke-width: 0.8; stroke-linecap: square"/>
     </g>
     <g id="line2d_24">
      <g>
       <use xlink:href="#m7484593357" x="62.67125" y="185.876364" style="stroke: #000000; stroke-width: 0.8"/>
      </g>
     </g>
     <g id="text_13">
      <!-- −0.50 -->
      <g transform="translate(25.025938 189.675582) scale(0.1 -0.1)">
       <use xlink:href="#DejaVuSans-2212"/>
       <use xlink:href="#DejaVuSans-30" transform="translate(83.789062 0)"/>
       <use xlink:href="#DejaVuSans-2e" transform="translate(147.412109 0)"/>
       <use xlink:href="#DejaVuSans-35" transform="translate(179.199219 0)"/>
       <use xlink:href="#DejaVuSans-30" transform="translate(242.822266 0)"/>
      </g>
     </g>
    </g>
    <g id="ytick_4">
     <g id="line2d_25">
      <path d="M 62.67125 160.808182 
L 493.2 160.808182 
" clip-path="url(#p0bfb764a06)" style="fill: none; stroke: #b0b0b0; stroke-width: 0.8; stroke-linecap: square"/>
     </g>
     <g id="line2d_26">
      <g>
       <use xlink:href="#m7484593357" x="62.67125" y="160.808182" style="stroke: #000000; stroke-width: 0.8"/>
      </g>
     </g>
     <g id="text_14">
      <!-- −0.25 -->
      <g transform="translate(25.025938 164.607401) scale(0.1 -0.1)">
       <use xlink:href="#DejaVuSans-2212"/>
       <use xlink:href="#DejaVuSans-30" transform="translate(83.789062 0)"/>
       <use xlink:href="#DejaVuSans-2e" transform="translate(147.412109 0)"/>
       <use xlink:href="#DejaVuSans-32" transform="translate(179.199219 0)"/>
       <use xlink:href="#DejaVuSans-35" transform="translate(242.822266 0)"/>
      </g>
     </g>
    </g>
    <g id="ytick_5">
     <g id="line2d_27">
      <path d="M 62.67125 135.74 
L 493.2 135.74 
" clip-path="url(#p0bfb764a06)" style="fill: none; stroke: #b0b0b0; stroke-width: 0.8; stroke-linecap: square"/>
     </g>
     <g id="line2d_28">
      <g>
       <use xlink:href="#m7484593357" x="62.67125" y="135.74" style="stroke: #000000; stroke-width: 0.8"/>
      </g>
     </g>
     <g id="text_15">
      <!-- 0.00 -->
      <g transform="translate(33.405625 139.539219) scale(0.1 -0.1)">
       <use xlink:href="#DejaVuSans-30"/>
       <use xlink:href="#DejaVuSans-2e" transform="translate(63.623047 0)"/>
       <use xlink:href="#DejaVuSans-30" transform="translate(95.410156 0)"/>
       <use xlink:href="#DejaVuSans-30" transform="translate(159.033203 0)"/>
      </g>
     </g>
    </g>
    <g id="ytick_6">
     <g id="line2d_29">
      <path d="M 62.67125 110.671818 
L 493.2 110.671818 
" clip-path="url(#p0bfb764a06)" style="fill: none; stroke: #b0b0b0; stroke-width: 0.8; stroke-linecap: square"/>
     </g>
     <g id="line2d_30">
      <g>
       <use xlink:href="#m7484593357" x="62.67125" y="110.671818" style="stroke: #000000; stroke-width: 0.8"/>
      </g>
     </g>
     <g id="text_16">
      <!-- 0.25 -->
      <g transform="translate(33.405625 114.471037) scale(0.1 -0.1)">
       <use xlink:href="#DejaVuSans-30"/>
       <use xlink:href="#DejaVuSans-2e" transform="translate(63.623047 0)"/>
       <use xlink:href="#DejaVuSans-32" transform="translate(95.410156 0)"/>
       <use xlink:href="#DejaVuSans-35" transform="translate(159.033203 0)"/>
      </g>
     </g>
    </g>
    <g id="ytick_7">
     <g id="line2d_31">
      <path d="M 62.67125 85.603636 
L 493.2 85.603636 
" clip-path="url(#p0bfb764a06)" style="fill: none; stroke: #b0b0b0; stroke-width: 0.8; stroke-linecap: square"/>
     </g>
     <g id="line2d_32">
      <g>
       <use xlink:href="#m7484593357" x="62.67125" y="85.603636" style="stroke: #000000; stroke-width: 0.8"/>
      </g>
     </g>
     <g id="text_17">
      <!-- 0.50 -->
      <g transform="translate(33.405625 89.402855) scale(0.1 -0.1)">
       <use xlink:href="#DejaVuSans-30"/>
       <use xlink:href="#DejaVuSans-2e" transform="translate(63.623047 0)"/>
       <use xlink:href="#DejaVuSans-35" transform="translate(95.410156 0)"/>
       <use xlink:href="#DejaVuSans-30" transform="translate(159.033203 0)"/>
      </g>
     </g>
    </g>
    <g id="ytick_8">
     <g id="line2d_33">
      <path d="M 62.67125 60.535455 
L 493.2 60.535455 
" clip-path="url(#p0bfb764a06)" style="fill: none; stroke: #b0b0b0; stroke-width: 0.8; stroke-linecap: square"/>
     </g>
     <g id="line2d_34">
      <g>
       <use xlink:href="#m7484593357" x="62.67125" y="60.535455" style="stroke: #000000; stroke-width: 0.8"/>
      </g>
     </g>
     <g id="text_18">
      <!-- 0.75 -->
      <g transform="translate(33.405625 64.334673) scale(0.1 -0.1)">
       <use xlink:href="#DejaVuSans-30"/>
       <use xlink:href="#DejaVuSans-2e" transform="translate(63.623047 0)"/>
       <use xlink:href="#DejaVuSans-37" transform="translate(95.410156 0)"/>
       <use xlink:href="#DejaVuSans-35" transform="translate(159.033203 0)"/>
      </g>
     </g>
    </g>
    <g id="ytick_9">
     <g id="line2d_35">
      <path d="M 62.67125 35.467273 
L 493.2 35.467273 
" clip-path="url(#p0bfb764a06)" style="fill: none; stroke: #b0b0b0; stroke-width: 0.8; stroke-linecap: square"/>
     </g>
     <g id="line2d_36">
      <g>
       <use xlink:href="#m7484593357" x="62.67125" y="35.467273" style="stroke: #000000; stroke-width: 0.8"/>
      </g>
     </g>
     <g id="text_19">
      <!-- 1.00 -->
      <g transform="translate(33.405625 39.266491) scale(0.1 -0.1)">
       <use xlink:href="#DejaVuSans-31"/>
       <use xlink:href="#DejaVuSans-2e" transform="translate(63.623047 0)"/>
       <use xlink:href="#DejaVuSans-30" transform="translate(95.410156 0)"/>
       <use xlink:href="#DejaVuSans-30" transform="translate(159.033203 0)"/>
      </g>
     </g>
    </g>
    <g id="text_20">
     <!-- P_n(x) -->
     <g transform="translate(18.668125 151.284531) rotate(-90) scale(0.1 -0.1)">
      <defs>
       <path id="DejaVuSans-50" d="M 1259 4147 
L 1259 2394 
L 2053 2394 
Q 2494 2394 2734 2622 
Q 2975 2850 2975 3272 
Q 2975 3691 2734 3919 
Q 2494 4147 2053 4147 
L 1259 4147 
z
M 628 4666 
L 2053 4666 
Q 2838 4666 3239 4311 
Q 3641 3956 3641 3272 
Q 3641 2581 3239 2228 
Q 2838 1875 2053 1875 
L 1259 1875 
L 1259 0 
L 628 0 
L 628 4666 
z
" transform="scale(0.015625)"/>
       <path id="DejaVuSans-5f" d="M 3263 -1063 
L 3263 -1509 
L -63 -1509 
L -63 -1063 
L 3263 -1063 
z
" transform="scale(0.015625)"/>
       <path id="DejaVuSans-6e" d="M 3513 2113 
L 3513 0 
L 2938 0 
L 2938 2094 
Q 2938 2591 2744 2837 
Q 2550 3084 2163 3084 
Q 1697 3084 1428 2787 
Q 1159 2491 1159 1978 
L 1159 0 
L 581 0 
L 581 3500 
L 1159 3500 
L 1159 2956 
Q 1366 3272 1645 3428 
Q 1925 3584 2291 3584 
Q 2894 3584 3203 3211 
Q 3513 2838 3513 2113 
z
" transform="scale(0.015625)"/>
       <path id="DejaVuSans-28" d="M 1984 4856 
Q 1566 4138 1362 3434 
Q 1159 2731 1159 2009 
Q 1159 1288 1364 580 
Q 1569 -128 1984 -844 
L 1484 -844 
Q 1016 -109 783 600 
Q 550 1309 550 2009 
Q 550 2706 781 3412 
Q 1013 4119 1484 4856 
L 1984 4856 
z
" transform="scale(0.015625)"/>
       <path id="DejaVuSans-29" d="M 513 4856 
L 1013 4856 
Q 1481 4119 1714 3412 
Q 1947 2706 1947 2009 
Q 1947 1309 1714 600 
Q 1481 -109 1013 -844 
L 513 -844 
Q 928 -128 1133 580 
Q 1338 1288 1338 2009 
Q 1338 2731 1133 3434 
Q 928 4138 513 4856 
z
" transform="scale(0.015625)"/>
      </defs>
      <use xlink:href="#DejaVuSans-50"/>
      <use xlink:href="#DejaVuSans-5f" transform="translate(60.302734 0)"/>
      <use xlink:href="#DejaVuSans-6e" transform="translate(110.302734 0)"/>
      <use xlink:href="#DejaVuSans-28" transform="translate(173.681641 0)"/>
      <use xlink:href="#DejaVuSans-78" transform="translate(212.695312 0)"/>
      <use xlink:href="#DejaVuSans-29" transform="translate(271.875 0)"/>
     </g>
    </g>
   </g>
   <g id="line2d_37">
    <path d="M 82.240739 35.467273 
L 473.630511 35.467273 
L 473.630511 35.467273 
" clip-path="url(#p0bfb764a06)" style="fill: none; stroke: #1f77b4; stroke-width: 1.5; stroke-linecap: square"/>
   </g>
   <g id="line2d_38">
    <path d="M 82.240739 236.012727 
L 473.630511 35.467273 
L 473.630511 35.467273 
" clip-path="url(#p0bfb764a06)" style="fill: none; stroke: #ff7f0e; stroke-width: 1.5; stroke-linecap: square"/>
   </g>
   <g id="line2d_39">
    <path d="M 82.240739 35.467273 
L 90.068534 47.259345 
L 97.89633 58.570109 
L 105.724125 69.399564 
L 113.55192 79.747709 
L 121.379716 89.614545 
L 127.250563 96.698814 
L 133.121409 103.512345 
L 138.992256 110.055141 
L 144.863102 116.3272 
L 150.733949 122.328523 
L 156.604795 128.059109 
L 162.475642 133.518959 
L 168.346489 138.708073 
L 174.217335 143.62645 
L 180.088182 148.274091 
L 185.959028 152.650995 
L 191.829875 156.757164 
L 197.700722 160.592595 
L 203.571568 164.157291 
L 209.442415 167.45125 
L 215.313261 170.474473 
L 221.184108 173.226959 
L 227.054955 175.708709 
L 232.925801 177.919723 
L 238.796648 179.86 
L 244.667494 181.529541 
L 250.538341 182.928345 
L 256.409188 184.056414 
L 262.280034 184.913745 
L 268.150881 185.500341 
L 274.021727 185.8162 
L 279.892574 185.861323 
L 285.76342 185.635709 
L 291.634267 185.139359 
L 297.505114 184.372273 
L 303.37596 183.33445 
L 309.246807 182.025891 
L 315.117653 180.446595 
L 320.9885 178.596564 
L 326.859347 176.475795 
L 332.730193 174.084291 
L 338.60104 171.42205 
L 344.471886 168.489073 
L 350.342733 165.285359 
L 356.21358 161.810909 
L 362.084426 158.065723 
L 367.955273 154.0498 
L 373.826119 149.763141 
L 379.696966 145.205745 
L 385.567813 140.377614 
L 391.438659 135.278745 
L 397.309506 129.909141 
L 403.180352 124.2688 
L 409.051199 118.357723 
L 414.922045 112.175909 
L 420.792892 105.723359 
L 426.663739 99.000073 
L 432.534585 92.00605 
L 438.405432 84.741291 
L 444.276278 77.205795 
L 452.104074 66.737323 
L 459.931869 55.787541 
L 467.759665 44.35645 
L 473.630511 35.467273 
L 473.630511 35.467273 
" clip-path="url(#p0bfb764a06)" style="fill: none; stroke: #2ca02c; stroke-width: 1.5; stroke-linecap: square"/>
   </g>
   <g id="line2d_40">
    <path d="M 82.240739 236.012727 
L 86.154636 224.278813 
L 90.068534 213.134502 
L 93.982432 202.567762 
L 97.89633 192.56656 
L 101.810227 183.118864 
L 105.724125 174.21264 
L 109.638023 165.835856 
L 113.55192 157.97648 
L 117.465818 150.622478 
L 121.379716 143.761818 
L 125.293614 137.382467 
L 129.207511 131.472393 
L 133.121409 126.019562 
L 137.035307 121.011942 
L 140.949205 116.4375 
L 144.863102 112.284204 
L 148.777 108.54002 
L 152.690898 105.192916 
L 156.604795 102.23086 
L 160.518693 99.641818 
L 164.432591 97.413758 
L 168.346489 95.534647 
L 172.260386 93.992453 
L 176.174284 92.775142 
L 180.088182 91.870682 
L 184.00208 91.26704 
L 187.915977 90.952184 
L 191.829875 90.91408 
L 195.743773 91.140696 
L 199.65767 91.62 
L 203.571568 92.339958 
L 207.485466 93.288538 
L 211.399364 94.453707 
L 215.313261 95.823433 
L 219.227159 97.385682 
L 223.141057 99.128422 
L 229.011903 102.054581 
L 234.88275 105.31926 
L 240.753597 108.881749 
L 246.624443 112.701338 
L 254.452239 118.124087 
L 262.280034 123.835622 
L 274.021727 132.733824 
L 293.591216 147.644378 
L 301.419011 153.355913 
L 309.246807 158.778662 
L 315.117653 162.598251 
L 320.9885 166.16074 
L 326.859347 169.425419 
L 332.730193 172.351578 
L 336.644091 174.094318 
L 340.557989 175.656567 
L 344.471886 177.026293 
L 348.385784 178.191462 
L 352.299682 179.140042 
L 356.21358 179.86 
L 360.127477 180.339304 
L 364.041375 180.56592 
L 367.955273 180.527816 
L 371.86917 180.21296 
L 375.783068 179.609318 
L 379.696966 178.704858 
L 383.610864 177.487547 
L 387.524761 175.945353 
L 391.438659 174.066242 
L 395.352557 171.838182 
L 399.266455 169.24914 
L 403.180352 166.287084 
L 407.09425 162.93998 
L 411.008148 159.195796 
L 414.922045 155.0425 
L 418.835943 150.468058 
L 422.749841 145.460438 
L 426.663739 140.007607 
L 430.577636 134.097533 
L 434.491534 127.718182 
L 438.405432 120.857522 
L 442.31933 113.50352 
L 446.233227 105.644144 
L 450.147125 97.26736 
L 454.061023 88.361136 
L 457.97492 78.91344 
L 461.888818 68.912238 
L 465.802716 58.345498 
L 469.716614 47.201187 
L 473.630511 35.467273 
L 473.630511 35.467273 
" clip-path="url(#p0bfb764a06)" style="fill: none; stroke: #d62728; stroke-width: 1.5; stroke-linecap: square"/>
   </g>
   <g id="line2d_41">
    <path d="M 82.240739 35.467273 
L 86.154636 54.633302 
L 90.068534 72.077748 
L 93.982432 87.882134 
L 97.89633 102.126677 
L 101.810227 114.88959 
L 105.724125 126.247462 
L 107.681074 131.423059 
L 109.638023 136.275386 
L 111.594972 140.813569 
L 113.55192 145.046593 
L 115.508869 148.98332 
L 117.465818 152.632646 
L 119.422767 156.003213 
L 121.379716 159.103545 
L 123.336665 161.942166 
L 125.293614 164.527398 
L 127.250563 166.867562 
L 129.207511 168.970883 
L 131.16446 170.845281 
L 133.121409 172.498678 
L 135.078358 173.939096 
L 137.035307 175.174155 
L 138.992256 176.211477 
L 140.949205 177.058581 
L 142.906153 177.722988 
L 144.863102 178.212018 
L 146.820051 178.53269 
L 148.777 178.692324 
L 150.733949 178.697839 
L 152.690898 178.556154 
L 154.647847 178.273986 
L 156.604795 177.858055 
L 158.561744 177.314978 
L 162.475642 175.873156 
L 166.38954 173.999059 
L 170.303438 171.741419 
L 174.217335 169.147463 
L 178.131233 166.262717 
L 182.045131 163.131 
L 187.915977 158.061812 
L 193.786824 152.666237 
L 203.571568 143.28806 
L 215.313261 132.042423 
L 221.184108 126.65845 
L 227.054955 121.552111 
L 232.925801 116.801691 
L 236.839699 113.867109 
L 240.753597 111.140393 
L 244.667494 108.638388 
L 248.581392 106.376135 
L 252.49529 104.36717 
L 256.409188 102.623327 
L 260.323085 101.154733 
L 264.236983 99.96971 
L 268.150881 99.075077 
L 272.064778 98.475747 
L 275.978676 98.17533 
L 279.892574 98.17533 
L 283.806472 98.475747 
L 287.720369 99.075077 
L 291.634267 99.96971 
L 295.548165 101.154733 
L 299.462063 102.623327 
L 303.37596 104.36717 
L 307.289858 106.376135 
L 311.203756 108.638388 
L 315.117653 111.140393 
L 319.031551 113.867109 
L 322.945449 116.801691 
L 328.816295 121.552111 
L 334.687142 126.65845 
L 340.557989 132.042423 
L 350.342733 141.393427 
L 362.084426 152.666237 
L 367.955273 158.061812 
L 373.826119 163.131 
L 377.740017 166.262717 
L 381.653915 169.147463 
L 385.567813 171.741419 
L 389.48171 173.999059 
L 393.395608 175.873156 
L 397.309506 177.314978 
L 399.266455 177.858055 
L 401.223403 178.273986 
L 403.180352 178.556154 
L 405.137301 178.697839 
L 407.09425 178.692324 
L 409.051199 178.53269 
L 411.008148 178.212018 
L 412.965097 177.722988 
L 414.922045 177.058581 
L 416.878994 176.211477 
L 418.835943 175.174155 
L 420.792892 173.939096 
L 422.749841 172.498678 
L 424.70679 170.845281 
L 426.663739 168.970883 
L 428.620688 166.867562 
L 430.577636 164.527398 
L 432.534585 161.942166 
L 434.491534 159.103545 
L 436.448483 156.003213 
L 438.405432 152.632646 
L 440.362381 148.98332 
L 442.31933 145.046593 
L 444.276278 140.813569 
L 446.233227 136.275386 
L 448.190176 131.423059 
L 450.147125 126.247462 
L 452.104074 120.739401 
L 454.061023 114.88959 
L 457.97492 102.126677 
L 461.888818 87.882134 
L 465.802716 72.077748 
L 469.716614 54.633302 
L 473.630511 35.467273 
L 473.630511 35.467273 
" clip-path="url(#p0bfb764a06)" style="fill: none; stroke: #9467bd; stroke-width: 1.5; stroke-linecap: square"/>
   </g>
   <g id="line2d_42">
    <path d="M 82.240739 236.012727 
L 84.197688 221.491231 
L 86.154636 207.981085 
L 88.111585 195.44158 
L 90.068534 183.832805 
L 92.025483 173.116057 
L 93.982432 163.253232 
L 95.939381 154.207429 
L 97.89633 145.942449 
L 99.853278 138.422987 
L 101.810227 131.61465 
L 103.767176 125.483905 
L 105.724125 119.998084 
L 107.681074 115.125331 
L 109.638023 110.834561 
L 111.594972 107.095692 
L 113.55192 103.879243 
L 115.508869 101.156739 
L 117.465818 98.900402 
L 119.422767 97.083259 
L 121.379716 95.67904 
L 123.336665 94.662375 
L 125.293614 94.008496 
L 127.250563 93.69354 
L 129.207511 93.694242 
L 131.16446 93.988241 
L 133.121409 94.553779 
L 135.078358 95.369699 
L 137.035307 96.415844 
L 138.992256 97.672362 
L 140.949205 99.1205 
L 142.906153 100.74191 
L 146.820051 104.434554 
L 150.733949 108.61723 
L 154.647847 113.166904 
L 160.518693 120.434371 
L 174.217335 137.786085 
L 180.088182 144.748883 
L 184.00208 149.074067 
L 187.915977 153.087783 
L 191.829875 156.74834 
L 195.743773 160.020941 
L 199.65767 162.877811 
L 203.571568 165.297191 
L 207.485466 167.263439 
L 211.399364 168.766828 
L 213.356313 169.343396 
L 215.313261 169.803047 
L 217.27021 170.145979 
L 219.227159 170.372796 
L 221.184108 170.4844 
L 223.141057 170.481793 
L 227.054955 170.140264 
L 230.968852 169.362548 
L 234.88275 168.166997 
L 238.796648 166.575869 
L 242.710545 164.614334 
L 246.624443 162.310869 
L 250.538341 159.696558 
L 254.452239 156.804893 
L 258.366136 153.671672 
L 264.236983 148.601181 
L 270.10783 143.204382 
L 293.591216 121.145706 
L 299.462063 116.213792 
L 303.37596 113.196786 
L 307.289858 110.439486 
L 311.203756 107.976588 
L 315.117653 105.840277 
L 319.031551 104.060637 
L 322.945449 102.664339 
L 326.859347 101.675149 
L 330.773244 101.113421 
L 332.730193 100.998207 
L 334.687142 100.9956 
L 336.644091 101.107204 
L 338.60104 101.334021 
L 340.557989 101.676953 
L 342.514938 102.136604 
L 344.471886 102.713172 
L 348.385784 104.216561 
L 352.299682 106.182809 
L 356.21358 108.602189 
L 360.127477 111.459059 
L 364.041375 114.73166 
L 367.955273 118.392217 
L 371.86917 122.405933 
L 375.783068 126.731117 
L 381.653915 133.693915 
L 387.524761 141.048308 
L 399.266455 155.936431 
L 403.180352 160.626488 
L 407.09425 165.007403 
L 411.008148 168.961056 
L 412.965097 170.73809 
L 414.922045 172.3595 
L 416.878994 173.807638 
L 418.835943 175.064156 
L 420.792892 176.110301 
L 422.749841 176.926221 
L 424.70679 177.491759 
L 426.663739 177.785758 
L 428.620688 177.78646 
L 430.577636 177.471504 
L 432.534585 176.817625 
L 434.491534 175.80096 
L 436.448483 174.396741 
L 438.405432 172.579598 
L 440.362381 170.323261 
L 442.31933 167.600757 
L 444.276278 164.384308 
L 446.233227 160.645439 
L 448.190176 156.354669 
L 450.147125 151.481916 
L 452.104074 145.996095 
L 454.061023 139.86535 
L 456.017972 133.057013 
L 457.97492 125.537551 
L 459.931869 117.272571 
L 461.888818 108.226768 
L 463.845767 98.363943 
L 465.802716 87.647195 
L 467.759665 76.03842 
L 469.716614 63.498915 
L 471.673563 49.988769 
L 473.630511 35.467273 
L 473.630511 35.467273 
" clip-path="url(#p0bfb764a06)" style="fill: none; stroke: #8c564b; stroke-width: 1.5; stroke-linecap: square"/>
   </g>
   <g id="patch_3">
    <path d="M 62.67125 246.04 
L 62.67125 25.44 
" style="fill: none; stroke: #000000; stroke-width: 0.8; stroke-linejoin: miter; stroke-linecap: square"/>
   </g>
   <g id="patch_4">
    <path d="M 493.2 246.04 
L 493.2 25.44 
" style="fill: none; stroke: #000000; stroke-width: 0.8; stroke-linejoin: miter; stroke-linecap: square"/>
   </g>
   <g id="patch_5">
    <path d="M 62.67125 246.04 
L 493.2 246.04 
" style="fill: none; stroke: #000000; stroke-width: 0.8; stroke-linejoin: miter; stroke-linecap: square"/>
   </g>
   <g id="patch_6">
    <path d="M 62.67125 25.44 
L 493.2 25.44 
" style="fill: none; stroke: #000000; stroke-width: 0.8; stroke-linejoin: miter; stroke-linecap: square"/>
   </g>
   <g id="text_21">
    <!-- Legendre polynomials (n=0..5) -->
    <g transform="translate(184.942188 19.44) scale(0.12 -0.12)">
     <defs>
      <path id="DejaVuSans-4c" d="M 628 4666 
L 1259 4666 
L 1259 531 
L 3531 531 
L 3531 0 
L 628 0 
L 628 4666 
z
" transform="scale(0.015625)"/>
      <path id="DejaVuSans-65" d="M 3597 1894 
L 3597 1613 
L 953 1613 
Q 991 1019 1311 708 
Q 1631 397 2203 397 
Q 2534 397 2845 478 
Q 3156 559 3463 722 
L 3463 178 
Q 3153 47 2828 -22 
Q 2503 -91 2169 -91 
Q 1331 -91 842 396 
Q 353 884 353 1716 
Q 353 2575 817 3079 
Q 1281 3584 2069 3584 
Q 2775 3584 3186 3129 
Q 3597 2675 3597 1894 
z
M 3022 2063 
Q 3016 2534 2758 2815 
Q 2500 3097 2075 3097 
Q 1594 3097 1305 2825 
Q 1016 2553 972 2059 
L 3022 2063 
z
" transform="scale(0.015625)"/>
      <path id="DejaVuSans-67" d="M 2906 1791 
Q 2906 2416 2648 2759 
Q 2391 3103 1925 3103 
Q 1463 3103 1205 2759 
Q 947 2416 947 1791 
Q 947 1169 1205 825 
Q 1463 481 1925 481 
Q 2391 481 2648 825 
Q 2906 1169 2906 1791 
z
M 3481 434 
Q 3481 -459 3084 -895 
Q 2688 -1331 1869 -1331 
Q 1566 -1331 1297 -1286 
Q 1028 -1241 775 -1147 
L 775 -588 
Q 1028 -725 1275 -790 
Q 1522 -856 1778 -856 
Q 2344 -856 2625 -561 
Q 2906 -266 2906 331 
L 2906 616 
Q 2728 306 2450 153 
Q 2172 0 1784 0 
Q 1141 0 747 490 
Q 353 981 353 1791 
Q 353 2603 747 3093 
Q 1141 3584 1784 3584 
Q 2172 3584 2450 3431 
Q 2728 3278 2906 2969 
L 2906 3500 
L 3481 3500 
L 3481 434 
z
" transform="scale(0.015625)"/>
      <path id="DejaVuSans-64" d="M 2906 2969 
L 2906 4863 
L 3481 4863 
L 3481 0 
L 2906 0 
L 2906 525 
Q 2725 213 2448 61 
Q 2172 -91 1784 -91 
Q 1150 -91 751 415 
Q 353 922 353 1747 
Q 353 2572 751 3078 
Q 1150 3584 1784 3584 
Q 2172 3584 2448 3432 
Q 2725 3281 2906 2969 
z
M 947 1747 
Q 947 1113 1208 752 
Q 1469 391 1925 391 
Q 2381 391 2643 752 
Q 2906 1113 2906 1747 
Q 2906 2381 2643 2742 
Q 2381 3103 1925 3103 
Q 1469 3103 1208 2742 
Q 947 2381 947 1747 
z
" transform="scale(0.015625)"/>
      <path id="DejaVuSans-72" d="M 2631 2963 
Q 2534 3019 2420 3045 
Q 2306 3072 2169 3072 
Q 1681 3072 1420 2755 
Q 1159 2438 1159 1844 
L 1159 0 
L 581 0 
L 581 3500 
L 1159 3500 
L 1159 2956 
Q 1341 3275 1631 3429 
Q 1922 3584 2338 3584 
Q 2397 3584 2469 3576 
Q 2541 3569 2628 3553 
L 2631 2963 
z
" transform="scale(0.015625)"/>
      <path id="DejaVuSans-20" transform="scale(0.015625)"/>
      <path id="DejaVuSans-70" d="M 1159 525 
L 1159 -1331 
L 581 -1331 
L 581 3500 
L 1159 3500 
L 1159 2969 
Q 1341 3281 1617 3432 
Q 1894 3584 2278 3584 
Q 2916 3584 3314 3078 
Q 3713 2572 3713 1747 
Q 3713 922 3314 415 
Q 2916 -91 2278 -91 
Q 1894 -91 1617 61 
Q 1341 213 1159 525 
z
M 3116 1747 
Q 3116 2381 2855 2742 
Q 2594 3103 2138 3103 
Q 1681 3103 1420 2742 
Q 1159 2381 1159 1747 
Q 1159 1113 1420 752 
Q 1681 391 2138 391 
Q 2594 391 2855 752 
Q 3116 1113 3116 1747 
z
" transform="scale(0.015625)"/>
      <path id="DejaVuSans-6f" d="M 1959 3097 
Q 1497 3097 1228 2736 
Q 959 2375 959 1747 
Q 959 1119 1226 758 
Q 1494 397 1959 397 
Q 2419 397 2687 759 
Q 2956 1122 2956 1747 
Q 2956 2369 2687 2733 
Q 2419 3097 1959 3097 
z
M 1959 3584 
Q 2709 3584 3137 3096 
Q 3566 2609 3566 1747 
Q 3566 888 3137 398 
Q 2709 -91 1959 -91 
Q 1206 -91 779 398 
Q 353 888 353 1747 
Q 353 2609 779 3096 
Q 1206 3584 1959 3584 
z
" transform="scale(0.015625)"/>
      <path id="DejaVuSans-6c" d="M 603 4863 
L 1178 4863 
L 1178 0 
L 603 0 
L 603 4863 
z
" transform="scale(0.015625)"/>
      <path id="DejaVuSans-79" d="M 2059 -325 
Q 1816 -950 1584 -1140 
Q 1353 -1331 966 -1331 
L 506 -1331 
L 506 -850 
L 844 -850 
Q 1081 -850 1212 -737 
Q 1344 -625 1503 -206 
L 1606 56 
L 191 3500 
L 800 3500 
L 1894 763 
L 2988 3500 
L 3597 3500 
L 2059 -325 
z
" transform="scale(0.015625)"/>
      <path id="DejaVuSans-6d" d="M 3328 2828 
Q 3544 3216 3844 3400 
Q 4144 3584 4550 3584 
Q 5097 3584 5394 3201 
Q 5691 2819 5691 2113 
L 5691 0 
L 5113 0 
L 5113 2094 
Q 5113 2597 4934 2840 
Q 4756 3084 4391 3084 
Q 3944 3084 3684 2787 
Q 3425 2491 3425 1978 
L 3425 0 
L 2847 0 
L 2847 2094 
Q 2847 2600 2669 2842 
Q 2491 3084 2119 3084 
Q 1678 3084 1418 2786 
Q 1159 2488 1159 1978 
L 1159 0 
L 581 0 
L 581 3500 
L 1159 3500 
L 1159 2956 
Q 1356 3278 1631 3431 
Q 1906 3584 2284 3584 
Q 2666 3584 2933 3390 
Q 3200 3197 3328 2828 
z
" transform="scale(0.015625)"/>
      <path id="DejaVuSans-69" d="M 603 3500 
L 1178 3500 
L 1178 0 
L 603 0 
L 603 3500 
z
M 603 4863 
L 1178 4863 
L 1178 4134 
L 603 4134 
L 603 4863 
z
" transform="scale(0.015625)"/>
      <path id="DejaVuSans-61" d="M 2194 1759 
Q 1497 1759 1228 1600 
Q 959 1441 959 1056 
Q 959 750 1161 570 
Q 1363 391 1709 391 
Q 2188 391 2477 730 
Q 2766 1069 2766 1631 
L 2766 1759 
L 2194 1759 
z
M 3341 1997 
L 3341 0 
L 2766 0 
L 2766 531 
Q 2569 213 2275 61 
Q 1981 -91 1556 -91 
Q 1019 -91 701 211 
Q 384 513 384 1019 
Q 384 1609 779 1909 
Q 1175 2209 1959 2209 
L 2766 2209 
L 2766 2266 
Q 2766 2663 2505 2880 
Q 2244 3097 1772 3097 
Q 1472 3097 1187 3025 
Q 903 2953 641 2809 
L 641 3341 
Q 956 3463 1253 3523 
Q 1550 3584 1831 3584 
Q 2591 3584 2966 3190 
Q 3341 2797 3341 1997 
z
" transform="scale(0.015625)"/>
      <path id="DejaVuSans-73" d="M 2834 3397 
L 2834 2853 
Q 2591 2978 2328 3040 
Q 2066 3103 1784 3103 
Q 1356 3103 1142 2972 
Q 928 2841 928 2578 
Q 928 2378 1081 2264 
Q 1234 2150 1697 2047 
L 1894 2003 
Q 2506 1872 2764 1633 
Q 3022 1394 3022 966 
Q 3022 478 2636 193 
Q 2250 -91 1575 -91 
Q 1294 -91 989 -36 
Q 684 19 347 128 
L 347 722 
Q 666 556 975 473 
Q 1284 391 1588 391 
Q 1994 391 2212 530 
Q 2431 669 2431 922 
Q 2431 1156 2273 1281 
Q 2116 1406 1581 1522 
L 1381 1569 
Q 847 1681 609 1914 
Q 372 2147 372 2553 
Q 372 3047 722 3315 
Q 1072 3584 1716 3584 
Q 2034 3584 2315 3537 
Q 2597 3491 2834 3397 
z
" transform="scale(0.015625)"/>
      <path id="DejaVuSans-3d" d="M 678 2906 
L 4684 2906 
L 4684 2381 
L 678 2381 
L 678 2906 
z
M 678 1631 
L 4684 1631 
L 4684 1100 
L 678 1100 
L 678 1631 
z
" transform="scale(0.015625)"/>
     </defs>
     <use xlink:href="#DejaVuSans-4c"/>
     <use xlink:href="#DejaVuSans-65" transform="translate(53.962891 0)"/>
     <use xlink:href="#DejaVuSans-67" transform="translate(115.486328 0)"/>
     <use xlink:href="#DejaVuSans-65" transform="translate(178.962891 0)"/>
     <use xlink:href="#DejaVuSans-6e" transform="translate(240.486328 0)"/>
     <use xlink:href="#DejaVuSans-64" transform="translate(303.865234 0)"/>
     <use xlink:href="#DejaVuSans-72" transform="translate(367.341797 0)"/>
     <use xlink:href="#DejaVuSans-65" transform="translate(406.205078 0)"/>
     <use xlink:href="#DejaVuSans-20" transform="translate(467.728516 0)"/>
     <use xlink:href="#DejaVuSans-70" transform="translate(499.515625 0)"/>
     <use xlink:href="#DejaVuSans-6f" transform="translate(562.992188 0)"/>
     <use xlink:href="#DejaVuSans-6c" transform="translate(624.173828 0)"/>
     <use xlink:href="#DejaVuSans-79" transform="translate(651.957031 0)"/>
     <use xlink:href="#DejaVuSans-6e" transform="translate(711.136719 0)"/>
     <use xlink:href="#DejaVuSans-6f" transform="translate(774.515625 0)"/>
     <use xlink:href="#DejaVuSans-6d" transform="translate(835.697266 0)"/>
     <use xlink:href="#DejaVuSans-69" transform="translate(933.109375 0)"/>
     <use xlink:href="#DejaVuSans-61" transform="translate(960.892578 0)"/>
     <use xlink:href="#DejaVuSans-6c" transform="translate(1022.171875 0)"/>
     <use xlink:href="#DejaVuSans-73" transform="translate(1049.955078 0)"/>
     <use xlink:href="#DejaVuSans-20" transform="translate(1102.054688 0)"/>
     <use xlink:href="#DejaVuSans-28" transform="translate(1133.841797 0)"/>
     <use xlink:href="#DejaVuSans-6e" transform="translate(1172.855469 0)"/>
     <use xlink:href="#DejaVuSans-3d" transform="translate(1236.234375 0)"/>
     <use xlink:href="#DejaVuSans-30" transform="translate(1320.023438 0)"/>
     <use xlink:href="#DejaVuSans-2e" transform="translate(1383.646484 0)"/>
     <use xlink:href="#DejaVuSans-2e" transform="translate(1415.433594 0)"/>
     <use xlink:href="#DejaVuSans-35" transform="translate(1447.220703 0)"/>
     <use xlink:href="#DejaVuSans-29" transform="translate(1510.84375 0)"/>
    </g>
   </g>
   <g id="legend_1">
    <g id="patch_7">
     <path d="M 441.807812 241.04 
L 486.2 241.04 
Q 488.2 241.04 488.2 239.04 
L 488.2 151.97125 
Q 488.2 149.97125 486.2 149.97125 
L 441.807812 149.97125 
Q 439.807812 149.97125 439.807812 151.97125 
L 439.807812 239.04 
Q 439.807812 241.04 441.807812 241.04 
z
" style="fill: #ffffff; opacity: 0.8; stroke: #cccccc; stroke-linejoin: miter"/>
    </g>
    <g id="line2d_43">
     <path d="M 443.807812 158.069687 
L 453.807812 158.069687 
L 463.807812 158.069687 
" style="fill: none; stroke: #1f77b4; stroke-width: 1.5; stroke-linecap: square"/>
    </g>
    <g id="text_22">
     <!-- P0 -->
     <g transform="translate(471.807812 161.569687) scale(0.1 -0.1)">
      <use xlink:href="#DejaVuSans-50"/>
      <use xlink:href="#DejaVuSans-30" transform="translate(60.302734 0)"/>
     </g>
    </g>
    <g id="line2d_44">
     <path d="M 443.807812 172.747813 
L 453.807812 172.747813 
L 463.807812 172.747813 
" style="fill: none; stroke: #ff7f0e; stroke-width: 1.5; stroke-linecap: square"/>
    </g>
    <g id="text_23">
     <!-- P1 -->
     <g transform="translate(471.807812 176.247813) scale(0.1 -0.1)">
      <use xlink:href="#DejaVuSans-50"/>
      <use xlink:href="#DejaVuSans-31" transform="translate(60.302734 0)"/>
     </g>
    </g>
    <g id="line2d_45">
     <path d="M 443.807812 187.425938 
L 453.807812 187.425938 
L 463.807812 187.425938 
" style="fill: none; stroke: #2ca02c; stroke-width: 1.5; stroke-linecap: square"/>
    </g>
    <g id="text_24">
     <!-- P2 -->
     <g transform="translate(471.807812 190.925938) scale(0.1 -0.1)">
      <use xlink:href="#DejaVuSans-50"/>
      <use xlink:href="#DejaVuSans-32" transform="translate(60.302734 0)"/>
     </g>
    </g>
    <g id="line2d_46">
     <path d="M 443.807812 202.104062 
L 453.807812 202.104062 
L 463.807812 202.104062 
" style="fill: none; stroke: #d62728; stroke-width: 1.5; stroke-linecap: square"/>
    </g>
    <g id="text_25">
     <!-- P3 -->
     <g transform="translate(471.807812 205.604062) scale(0.1 -0.1)">
      <defs>
       <path id="DejaVuSans-33" d="M 2597 2516 
Q 3050 2419 3304 2112 
Q 3559 1806 3559 1356 
Q 3559 666 3084 287 
Q 2609 -91 1734 -91 
Q 1441 -91 1130 -33 
Q 819 25 488 141 
L 488 750 
Q 750 597 1062 519 
Q 1375 441 1716 441 
Q 2309 441 2620 675 
Q 2931 909 2931 1356 
Q 2931 1769 2642 2001 
Q 2353 2234 1838 2234 
L 1294 2234 
L 1294 2753 
L 1863 2753 
Q 2328 2753 2575 2939 
Q 2822 3125 2822 3475 
Q 2822 3834 2567 4026 
Q 2313 4219 1838 4219 
Q 1578 4219 1281 4162 
Q 984 4106 628 3988 
L 628 4550 
Q 988 4650 1302 4700 
Q 1616 4750 1894 4750 
Q 2613 4750 3031 4423 
Q 3450 4097 3450 3541 
Q 3450 3153 3228 2886 
Q 3006 2619 2597 2516 
z
" transform="scale(0.015625)"/>
      </defs>
      <use xlink:href="#DejaVuSans-50"/>
      <use xlink:href="#DejaVuSans-33" transform="translate(60.302734 0)"/>
     </g>
    </g>
    <g id="line2d_47">
     <path d="M 443.807812 216.782188 
L 453.807812 216.782188 
L 463.807812 216.782188 
" style="fill: none; stroke: #9467bd; stroke-width: 1.5; stroke-linecap: square"/>
    </g>
    <g id="text_26">
     <!-- P4 -->
     <g transform="translate(471.807812 220.282188) scale(0.1 -0.1)">
      <defs>
       <path id="DejaVuSans-34" d="M 2419 4116 
L 825 1625 
L 2419 1625 
L 2419 4116 
z
M 2253 4666 
L 3047 4666 
L 3047 1625 
L 3713 1625 
L 3713 1100 
L 3047 1100 
L 3047 0 
L 2419 0 
L 2419 1100 
L 313 1100 
L 313 1709 
L 2253 4666 
z
" transform="scale(0.015625)"/>
      </defs>
      <use xlink:href="#DejaVuSans-50"/>
      <use xlink:href="#DejaVuSans-34" transform="translate(60.302734 0)"/>
     </g>
    </g>
    <g id="line2d_48">
     <path d="M 443.807812 231.460312 
L 453.807812 231.460312 
L 463.807812 231.460312 
" style="fill: none; stroke: #8c564b; stroke-width: 1.5; stroke-linecap: square"/>
    </g>
    <g id="text_27">
     <!-- P5 -->
     <g transform="translate(471.807812 234.960312) scale(0.1 -0.1)">
      <use xlink:href="#DejaVuSans-50"/>
      <use xlink:href="#DejaVuSans-35" transform="translate(60.302734 0)"/>
     </g>
    </g>
   </g>
  </g>
 </g>
 <defs>
  <clipPath id="p0bfb764a06">
   <rect x="62.67125" y="25.44" width="430.52875" height="220.6"/>
  </clipPath>
 </defs>
</svg>
